<svg xmlns="http://www.w3.org/2000/svg" viewBox="0 0 860 150" width="860" height="150" font-family="Segoe UI,Helvetica,Arial,sans-serif" role="img" aria-label="Docs">
<defs>
<linearGradient id="bar" gradientUnits="userSpaceOnUse" x1="0" y1="0" x2="860" y2="0"><stop offset="0" stop-color="#63D8F2"/><stop offset=".35" stop-color="#A99BFF"/><stop offset=".68" stop-color="#F26FC0"/><stop offset="1" stop-color="#FFC766"/></linearGradient>
<radialGradient id="gl" cx="731.0" cy="0" r="688.0" gradientUnits="userSpaceOnUse"><stop offset="0" stop-color="#6B4A12" stop-opacity=".6"/><stop offset="1" stop-color="#6B4A12" stop-opacity="0"/></radialGradient>
<clipPath id="c"><rect width="860" height="150" rx="16"/></clipPath><style>
.em{transform-box:fill-box;transform-origin:center;animation:em 8s ease-in-out infinite alternate}@keyframes em{to{transform:rotate(14deg) scale(1.05)}}
@media (prefers-reduced-motion:reduce){.em{animation:none}}
</style></defs>
<g clip-path="url(#c)"><rect width="860" height="150" fill="#0d1117"/><rect width="860" height="150" fill="url(#gl)"/><rect width="860" height="5" fill="url(#bar)"/>
<defs><linearGradient id="gh" x1="0" y1="0" x2="1" y2="1"><stop offset="0" stop-color="#FFC766"/><stop offset="1" stop-color="#C9F04E"/></linearGradient></defs><path class="em" d="M82 26c32-13 58 6 62 36s-13 58-45 62-62-17-64-47 15-38 47-51z" fill="url(#gh)"/><text x="90" y="84" font-size="22" fill="#0d1117" font-weight="800" text-anchor="middle" letter-spacing="1.2">DOCS</text><text x="178" y="68" font-size="29" fill="#e6edf3" font-weight="800" text-anchor="start" >Docs</text><text x="178" y="98" font-size="14.5" fill="#9da7b3" font-weight="400" text-anchor="start" >Los documentos que produjo cada fase</text><rect x="178" y="112" width="69" height="24" rx="12" fill="#63D8F2" fill-opacity=".16" stroke="#63D8F2" stroke-opacity=".5"/><text x="212.3" y="128.5" font-size="12.5" fill="#63D8F2" font-weight="600" text-anchor="middle" >Fase 1</text><rect x="254.6" y="112" width="69" height="24" rx="12" fill="#A99BFF" fill-opacity=".16" stroke="#A99BFF" stroke-opacity=".5"/><text x="288.9" y="128.5" font-size="12.5" fill="#A99BFF" font-weight="600" text-anchor="middle" >Fase 2</text><rect x="331.2" y="112" width="69" height="24" rx="12" fill="#F26FC0" fill-opacity=".16" stroke="#F26FC0" stroke-opacity=".5"/><text x="365.5" y="128.5" font-size="12.5" fill="#F26FC0" font-weight="600" text-anchor="middle" >Fase 3</text><rect x="407.79999999999995" y="112" width="69" height="24" rx="12" fill="#C9F04E" fill-opacity=".16" stroke="#C9F04E" stroke-opacity=".5"/><text x="442.09999999999997" y="128.5" font-size="12.5" fill="#C9F04E" font-weight="600" text-anchor="middle" >Fase 5</text>
</g><rect x=".5" y=".5" width="859" height="149" rx="16" fill="none" stroke="#30363d"/></svg>