<svg xmlns="http://www.w3.org/2000/svg" viewBox="0 0 860 170" width="860" height="170" font-family="Segoe UI,Helvetica,Arial,sans-serif" role="img" aria-label="Síntomas depresivos en adultos mayores. Regresión logística con metodología TDSP">
<defs>
<linearGradient id="g1" x1="0" y1="0" x2="1" y2="1"><stop offset="0" stop-color="#63D8F2"/><stop offset="1" stop-color="#A99BFF"/></linearGradient>
<linearGradient id="g2" x1="0" y1="0" x2="1" y2="1"><stop offset="0" stop-color="#F26FC0"/><stop offset="1" stop-color="#8E7BFF"/></linearGradient>
<linearGradient id="g3" x1="0" y1="0" x2="1" y2="1"><stop offset="0" stop-color="#C9F04E"/><stop offset="1" stop-color="#49D8B8"/></linearGradient>
<linearGradient id="g4" x1="0" y1="0" x2="1" y2="1"><stop offset="0" stop-color="#FFC766"/><stop offset="1" stop-color="#F26FC0"/></linearGradient>
<linearGradient id="gh" x1="0" y1="0" x2="1" y2="1"><stop offset="0" stop-color="#63D8F2"/><stop offset="1" stop-color="#F26FC0"/></linearGradient>
<linearGradient id="bar" gradientUnits="userSpaceOnUse" x1="0" y1="0" x2="860" y2="0"><stop offset="0" stop-color="#63D8F2"/><stop offset=".35" stop-color="#A99BFF"/><stop offset=".68" stop-color="#F26FC0"/><stop offset="1" stop-color="#FFC766"/></linearGradient>
<radialGradient id="gl" cx="731.0" cy="0" r="688.0" gradientUnits="userSpaceOnUse"><stop offset="0" stop-color="#3B2B8C" stop-opacity=".6"/><stop offset="1" stop-color="#3B2B8C" stop-opacity="0"/></radialGradient>
<clipPath id="c"><rect width="860" height="170" rx="16"/></clipPath><style>
.ring{animation:ring 1.8s ease-out both}@keyframes ring{from{stroke-dasharray:0 300}}
.grow{transform-box:fill-box;transform-origin:left center;animation:grow 1.4s cubic-bezier(.2,.8,.2,1) both}@keyframes grow{from{transform:scaleX(0)}}
.em{transform-box:fill-box;transform-origin:center;animation:em 8s ease-in-out infinite alternate}@keyframes em{to{transform:rotate(14deg) scale(1.05)}}
@media (prefers-reduced-motion:reduce){.ring,.grow,.em{animation:none}}
</style></defs>
<g clip-path="url(#c)"><rect width="860" height="170" fill="#0d1117"/><rect width="860" height="170" fill="url(#gl)"/><rect width="860" height="5" fill="url(#bar)"/>
<path class="em" d="M88 34c34-14 62 6 66 38s-14 62-48 66-66-18-68-50 16-40 50-54z" fill="url(#gh)"/>
<text x="96" y="98" font-size="24" fill="#0d1117" font-weight="800" text-anchor="middle" letter-spacing="1.5">TDSP</text>
<text x="190" y="78" font-size="31" fill="#e6edf3" font-weight="800" text-anchor="start" >Síntomas depresivos en adultos mayores</text>
<text x="190" y="110" font-size="14.5" fill="#9da7b3" font-weight="400" text-anchor="start" >Modelo de regresión logística · Escala CES-D · Team Data Science Process</text>
<circle cx="198" cy="138" r="7" fill="#63D8F2"/>
<circle cx="224" cy="138" r="7" fill="#A99BFF"/>
<circle cx="250" cy="138" r="7" fill="#F26FC0"/>
<circle cx="276" cy="138" r="7" fill="#FFC766"/>
<circle cx="302" cy="138" r="7" fill="#C9F04E"/>
</g><rect x=".5" y=".5" width="859" height="169" rx="16" fill="none" stroke="#30363d"/></svg>